<svg width="512" height="512" viewBox="0 0 512 512" fill="none" xmlns="http://www.w3.org/2000/svg">
<g clip-path="url(#clip0_4135_8544)">
<path d="M313.801 94.915C313.801 94.915 362.861 31.241 348.754 12.974C343.946 6.74896 339.846 15.203 329.903 15.203C318.22 15.203 318.22 7.55896 306.536 7.55896C294.854 7.55896 294.854 15.203 283.172 15.203C271.491 15.203 271.491 7.55896 259.81 7.55896C248.129 7.55896 248.129 15.203 236.447 15.203C226.492 15.203 222.409 6.63896 217.569 12.867C203.455 31.033 251.798 94.914 251.798 94.914C38.2931 235.272 107.134 426.153 233.191 426.153H333.164C459.601 426.153 528.016 235.738 313.801 94.915Z" fill="#EABC6B"/>
<path d="M313.801 94.915C313.801 94.915 362.861 31.241 348.754 12.974C343.946 6.74896 339.846 15.203 329.903 15.203C318.22 15.203 318.22 7.55896 306.536 7.55896C294.854 7.55896 294.854 15.203 283.172 15.203C282.597 15.203 282.071 15.171 281.55 15.135C276.856 35.255 255.704 66.601 243.6 83.384C248.367 90.379 251.798 94.914 251.798 94.914C248.984 96.7662 246.19 98.648 243.415 100.559C447.405 240.77 379.149 426.152 254.393 426.152H333.164C459.601 426.153 528.016 235.738 313.801 94.915Z" fill="#E8AE4D"/>
<path d="M322.923 117.562C294.416 124.761 266.252 124.762 237.74 117.562C227.816 115.056 222.191 103.897 225.762 93.7541L225.882 93.4141C228.876 84.9101 237.368 80.1381 245.691 82.2271C269.034 88.0881 291.623 88.0891 314.973 82.2271C323.296 80.1371 331.787 84.9101 334.782 93.4141L334.902 93.7541C338.472 103.898 332.847 115.056 322.923 117.562Z" fill="#FFE07D"/>
<path d="M54.8831 458.902L163.449 499.312C172.669 502.744 182.429 504.501 192.267 504.501H304.153C319.811 504.501 335.146 500.051 348.372 491.671L488.464 402.9C497.707 394.693 499.42 380.9 492.466 370.681C484.858 359.5 472.272 357.556 458.423 364.105L322.03 424.16L322.191 402.031C320.385 383.868 306.4 369.291 288.327 366.733L205.268 357.17C186.108 354.459 176.533 348.038 159.83 338.267C137.026 324.927 111.082 317.896 84.6631 317.896H54.8831V458.902Z" fill="#FFDDCE"/>
<path d="M54.8831 458.902L163.449 499.312C172.669 502.744 182.429 504.501 192.267 504.501H304.153C319.811 504.501 335.146 500.051 348.372 491.671L488.464 402.9C497.707 394.693 499.42 380.9 492.466 370.681C484.858 359.5 472.272 357.556 458.423 364.105L322.03 424.16L322.191 402.031C320.385 383.868 306.4 369.291 288.327 366.733L205.268 357.17C186.108 354.459 176.533 348.038 159.83 338.267C137.026 324.927 111.082 317.896 84.6631 317.896H54.8831V458.902Z" fill="#FFDDCE"/>
<path d="M492.467 370.682C484.859 359.501 472.273 357.557 458.424 364.106L420.908 380.625C422.725 383.501 424.17 385.796 424.17 385.796C431.123 396.015 429.41 409.807 420.168 418.015L338.539 469.74C327.749 474.682 316.022 477.242 304.154 477.244H192.268C182.43 477.244 172.67 475.487 163.45 472.055L54.884 431.645V458.903L163.45 499.313C172.67 502.745 182.43 504.502 192.268 504.502H304.154C319.812 504.502 335.147 500.052 348.373 491.672L488.465 402.902C497.707 394.694 499.421 380.901 492.467 370.682Z" fill="#FFCBBE"/>
<path d="M312.008 379.236L312.004 379.77L312.356 379.615C312.243 379.486 312.124 379.362 312.008 379.236Z" fill="#F5DBCC"/>
<path d="M78.2442 480.527C78.2442 488.404 71.8582 494.79 63.9812 494.79H29.5582C21.6812 494.79 15.2952 488.404 15.2952 480.527V305.883C15.2952 298.006 21.6812 291.62 29.5582 291.62H63.9812C71.8582 291.62 78.2442 298.006 78.2442 305.883V480.527Z" fill="#407093"/>
<path d="M498.667 366.464C489.116 352.428 472.915 349.001 455.315 357.283L445.987 361.39C460.695 330.04 462.52 295.093 455.198 262.083C446.789 224.17 426.478 187.442 394.83 152.919C394.165 152.193 393.363 151.605 392.47 151.189C391.578 150.773 390.612 150.537 389.628 150.494C388.644 150.452 387.661 150.603 386.736 150.94C385.811 151.277 384.961 151.793 384.235 152.459C383.509 153.124 382.921 153.926 382.505 154.819C382.089 155.711 381.853 156.677 381.81 157.661C381.768 158.645 381.919 159.628 382.256 160.553C382.593 161.478 383.11 162.328 383.775 163.054C413.621 195.61 432.725 230.021 440.557 265.33C448.806 302.523 444.007 340.879 422.956 371.53L329.614 412.629L329.691 402.087C329.693 401.821 329.681 401.555 329.654 401.29C328.626 390.754 324.07 380.873 316.725 373.25C309.38 365.626 299.676 360.705 289.185 359.285L206.224 349.733C174.323 345.192 166.107 326.075 122.903 315.174C119.918 289.844 123.897 262.875 134.803 235.838C151.228 195.12 183.361 155.56 227.907 121.127C244.51 132.899 318.583 134.364 335.159 119.178C343.651 125.627 351.756 132.273 359.306 139C360.677 140.226 362.453 140.902 364.292 140.9C365.812 140.9 367.296 140.438 368.547 139.576C369.799 138.713 370.759 137.491 371.3 136.071C371.841 134.651 371.938 133.099 371.578 131.623C371.217 130.146 370.417 128.814 369.282 127.803C361.006 120.43 352.104 113.155 342.767 106.124C344.955 96.846 341.893 85.987 333.813 79.523C357.292 43.911 364.121 20.602 354.688 8.38997C348.209 0.000972748 340.149 3.93797 336.707 5.61997C330.873 8.46797 327.692 8.61797 322.324 5.10597C312.083 -1.59503 301.319 -1.81103 290.748 5.10597C285.312 8.66297 281.031 8.66297 275.597 5.10597C265.355 -1.59503 254.595 -1.81103 244.022 5.10597C238.592 8.65997 235.399 8.43997 229.657 5.58597C226.219 3.87697 218.168 -0.125028 211.648 8.26497C202.427 20.133 208.596 42.707 230.491 77.108C229.143 77.8359 227.867 78.689 226.679 79.656C217.971 70.46 203.704 60.869 183.072 63.173C165.959 65.088 153.34 59.433 145.766 54.353C144.114 53.2931 142.112 52.923 140.191 53.3223C138.269 53.7216 136.58 54.8584 135.487 56.4887C134.394 58.1189 133.983 60.1128 134.344 62.0422C134.704 63.9717 135.806 65.6831 137.414 66.809C147.069 73.282 163.115 80.488 184.736 78.077C200.676 76.289 211.492 84.435 218.225 92.725C218.133 93.045 218.048 93.367 217.969 93.689C212.226 93.779 203.643 94.315 194.191 96.281C171.459 101.01 154.585 111.813 145.392 127.525C144.872 128.376 144.526 129.322 144.375 130.308C144.225 131.294 144.272 132.3 144.516 133.267C144.759 134.234 145.192 135.143 145.791 135.941C146.389 136.739 147.141 137.409 148.002 137.913C148.863 138.416 149.815 138.743 150.804 138.874C151.793 139.006 152.798 138.938 153.76 138.676C154.722 138.414 155.623 137.963 156.408 137.349C157.194 136.734 157.849 135.97 158.336 135.099C172.01 111.73 205.387 108.872 218.644 108.693C218.701 108.858 218.768 109.021 218.828 109.185C171.52 145.678 138.584 186.375 120.896 230.225C109.716 257.942 105.25 285.71 107.517 312.099C100.307 311.029 93.0316 310.466 85.7431 310.414V305.879C85.7431 293.88 75.9811 284.119 63.9821 284.119H29.5581C17.5591 284.119 7.79712 293.881 7.79712 305.879V480.523C7.79712 492.523 17.5591 502.284 29.5581 502.284H63.9811C75.9801 502.284 85.7421 492.522 85.7421 480.523V478.387L160.833 506.336C170.889 510.085 181.535 512.002 192.267 511.996H304.153C321.233 512.003 337.963 507.149 352.386 498.001C501.645 403.381 492.581 409.268 493.443 408.504C505.466 397.832 507.712 379.758 498.667 366.464ZM321.087 110.292C293.665 117.216 267.003 117.216 239.575 110.292C227.806 107.317 231.216 86.327 243.864 89.499C268.402 95.659 292.258 95.659 316.798 89.499C329.226 86.379 333.045 107.27 321.087 110.292ZM222.808 18.931L222.982 19.018C233.131 24.062 242.024 24.336 252.233 17.657C265.009 9.29397 266.396 22.703 283.171 22.703C291.247 22.703 295.704 19.787 298.958 17.657C304.395 14.099 308.677 14.101 314.113 17.657C324.367 24.367 333.045 24.036 343.489 18.999C345.032 24.561 341.54 41.142 319.304 74.248C308.262 74.06 292.238 84.905 246.876 74.81C224.688 41.276 221.257 24.534 222.808 18.931ZM483.893 396.921L344.359 485.338C332.336 492.964 318.391 497.01 304.154 497.004H192.268C183.322 497.009 174.447 495.411 166.065 492.285L85.7421 462.388V381.633C85.7421 379.644 84.9522 377.737 83.546 376.331C82.1399 374.925 80.2327 374.135 78.2441 374.135C76.2555 374.135 74.3484 374.925 72.9422 376.331C71.5361 377.737 70.7461 379.644 70.7461 381.633V480.527C70.744 482.32 70.0307 484.039 68.7627 485.307C67.4946 486.576 65.7754 487.289 63.9821 487.291H29.5581C27.7648 487.289 26.0456 486.576 24.7776 485.307C23.5096 484.039 22.7962 482.32 22.7941 480.527V305.883C22.796 304.09 23.5092 302.37 24.7774 301.103C26.0455 299.835 27.7649 299.122 29.5581 299.12H63.9811C65.7743 299.122 67.4935 299.835 68.7616 301.103C70.0297 302.371 70.743 304.09 70.7451 305.883V346.577C70.7451 348.566 71.5351 350.473 72.9412 351.879C74.3474 353.285 76.2545 354.075 78.2431 354.075C80.2317 354.075 82.1389 353.285 83.545 351.879C84.9512 350.473 85.7411 348.566 85.7411 346.577V325.415C147.772 325.89 161.719 358.585 204.217 364.596C204.281 364.606 204.345 364.614 204.409 364.621L287.366 374.172C294.408 375.175 300.916 378.494 305.863 383.605C310.81 388.716 313.915 395.328 314.689 402.399L314.585 416.663H237.22C235.252 416.695 233.376 417.499 231.996 418.902C230.616 420.305 229.843 422.194 229.843 424.162C229.843 426.13 230.616 428.019 231.996 429.422C233.376 430.825 235.252 431.629 237.22 431.661H322.029C322.976 431.661 324.07 431.451 325.022 431.036L461.444 370.971C471.255 366.611 480.2 365.988 486.266 374.902C490.982 381.829 489.938 391.194 483.893 396.921Z" fill="black"/>
<path d="M282.307 340.22C284.296 340.22 286.203 339.43 287.609 338.023C289.016 336.617 289.806 334.71 289.806 332.721V320.291C310.857 316.875 323.14 299.836 325.812 283.94C329.15 264.083 318.749 246.814 299.315 239.945C296.129 238.823 292.959 237.657 289.805 236.449V188.637C298.676 190.108 304.002 194.699 304.39 195.042C305.862 196.355 307.791 197.035 309.761 196.935C311.73 196.835 313.581 195.964 314.912 194.509C316.244 193.055 316.949 191.135 316.875 189.164C316.801 187.194 315.954 185.331 314.517 183.981C313.988 183.493 304.804 175.224 289.805 173.495V162.831C289.805 160.842 289.015 158.935 287.609 157.529C286.203 156.123 284.295 155.333 282.306 155.333C280.318 155.333 278.411 156.123 277.004 157.529C275.598 158.935 274.808 160.842 274.808 162.831V174.101C273 174.447 271.148 174.887 269.245 175.46C256.525 179.291 247.017 190.198 244.43 203.923C242.083 216.378 246.032 228.356 254.735 235.182C259.732 239.101 266.022 242.689 274.808 246.525V305.826C266.136 305.459 260.798 303.831 251.486 297.739C250.662 297.2 249.74 296.828 248.772 296.646C247.805 296.463 246.81 296.473 245.847 296.674C244.883 296.876 243.968 297.265 243.155 297.82C242.341 298.375 241.645 299.085 241.106 299.909C240.567 300.733 240.195 301.655 240.013 302.623C239.83 303.59 239.84 304.585 240.041 305.548C240.243 306.512 240.632 307.427 241.187 308.24C241.742 309.054 242.452 309.75 243.276 310.289C255.517 318.297 263.7 320.386 274.808 320.818V332.721C274.808 333.706 275.002 334.681 275.379 335.591C275.755 336.501 276.308 337.328 277.004 338.024C277.701 338.72 278.527 339.273 279.437 339.649C280.347 340.026 281.322 340.22 282.307 340.22ZM263.991 223.382C259.71 220.024 257.861 213.632 259.168 206.701C260.38 200.273 264.799 192.463 273.571 189.821C273.988 189.695 274.398 189.587 274.808 189.477V229.982C270.318 227.74 266.797 225.583 263.991 223.382ZM294.317 254.085C312.977 260.68 311.821 276.702 311.022 281.455C309.368 291.296 302.144 301.802 289.805 304.964V252.46C291.265 252.994 292.756 253.533 294.317 254.085Z" fill="black"/>
</g>
<defs>
<clipPath id="clip0_4135_8544">
<rect width="512" height="512" fill="white"/>
</clipPath>
</defs>
</svg>
