<svg width="512" height="512" viewBox="0 0 512 512" fill="none" xmlns="http://www.w3.org/2000/svg">
<path d="M264.143 504.366C394.566 504.366 500.294 398.638 500.294 268.215C500.294 137.792 394.566 32.064 264.143 32.064C133.72 32.064 27.9919 137.792 27.9919 268.215C27.9919 398.638 133.72 504.366 264.143 504.366Z" fill="#71C2F5"/>
<path d="M304.859 488.079C174.436 488.079 68.7079 382.351 68.7079 251.928C68.7079 160.307 120.885 80.8759 197.145 41.7209C99.3589 70.6029 27.9919 161.067 27.9919 268.215C27.9919 398.638 133.721 504.366 264.143 504.366C302.945 504.366 339.561 495.005 371.857 478.422C350.616 484.696 328.134 488.079 304.859 488.079Z" fill="#56ACE1"/>
<path d="M197.136 41.725C152.012 55.058 112.512 81.497 83.059 116.65L100.291 133.882C122.995 94.621 156.673 62.503 197.136 41.725ZM202.893 464.987L169.01 484.403C198.116 497.229 230.293 504.366 264.142 504.366C302.929 504.366 339.526 495.007 371.812 478.436C350.584 484.701 328.117 488.08 304.858 488.08C268.341 488.079 233.761 479.786 202.893 464.987Z" fill="#15B259"/>
<path d="M468.465 386.677L342.86 356.771C342.86 356.771 323.181 297.733 323.181 287.893C323.181 278.053 372.379 219.015 372.379 219.015L492.107 206.412C464.941 105.969 373.18 32.064 264.143 32.064C240.864 32.064 218.38 35.448 197.136 41.726C156.674 62.503 122.996 94.622 100.292 133.882L126.389 159.979L205.106 169.819L264.144 219.357L273.984 278.056L283.824 337.094L247.858 439.222L202.895 464.988C233.763 479.787 268.342 488.081 304.86 488.081C328.119 488.081 350.585 484.703 371.814 478.437C412.15 457.731 445.755 425.763 468.465 386.677Z" fill="#3AC274"/>
<path d="M68.708 251.928C68.708 245.48 68.977 239.095 69.484 232.777L30.182 236.053C28.7267 246.712 27.9954 257.457 27.993 268.214C27.993 346.62 66.214 416.087 125.03 459.038L156.025 435.262C102.752 391.965 68.708 325.927 68.708 251.928Z" fill="#15B259"/>
<path d="M205.105 346.931L155.907 317.412L116.548 228.855L69.483 232.777C68.9687 239.148 68.7098 245.537 68.707 251.928C68.707 325.927 102.751 391.965 156.022 435.264L182.711 414.791L205.105 346.931Z" fill="#3AC274"/>
<path d="M264.143 341.503C264.143 305.525 293.31 276.358 329.288 276.358C365.266 276.358 394.433 305.525 394.433 341.503C394.433 390.362 329.288 455.507 329.288 455.507C329.288 455.507 264.143 390.362 264.143 341.503Z" fill="#FFCF1A"/>
<path d="M288.573 333.36C288.573 309.188 301.749 288.107 321.299 276.863C289.092 280.804 264.143 308.231 264.143 341.503C264.143 390.362 329.288 455.507 329.288 455.507C329.288 455.507 335.977 448.815 345.062 438.124C327.343 418.436 288.573 371.055 288.573 333.36Z" fill="#FFBE35"/>
<path d="M329.288 374.076C347.278 374.076 361.861 359.493 361.861 341.503C361.861 323.513 347.278 308.93 329.288 308.93C311.299 308.93 296.715 323.513 296.715 341.503C296.715 359.493 311.299 374.076 329.288 374.076Z" fill="#FFE88F"/>
<path d="M329.288 72.779C329.288 36.801 358.455 7.63403 394.433 7.63403C430.411 7.63403 459.578 36.801 459.578 72.779C459.578 121.638 394.433 186.783 394.433 186.783C394.433 186.783 329.288 121.638 329.288 72.779Z" fill="#FFCF1A"/>
<path d="M353.718 64.636C353.718 40.464 366.894 19.383 386.444 8.13904C354.237 12.08 329.288 39.507 329.288 72.779C329.288 121.638 394.433 186.783 394.433 186.783C394.433 186.783 401.122 180.091 410.207 169.4C392.488 149.713 353.718 102.332 353.718 64.636Z" fill="#FFBE35"/>
<path d="M394.433 105.352C412.422 105.352 427.006 90.7686 427.006 72.7791C427.006 54.7895 412.422 40.2061 394.433 40.2061C376.443 40.2061 361.86 54.7895 361.86 72.7791C361.86 90.7686 376.443 105.352 394.433 105.352Z" fill="#FFE88F"/>
<path d="M11.7061 178.64C11.7061 142.662 40.8731 113.495 76.8511 113.495C112.829 113.495 141.996 142.662 141.996 178.64C141.996 227.499 76.8511 292.644 76.8511 292.644C76.8511 292.644 11.7061 227.499 11.7061 178.64Z" fill="#FFCF1A"/>
<path d="M36.135 170.497C36.135 146.325 49.311 125.244 68.861 114C36.654 117.941 11.705 145.368 11.705 178.64C11.705 227.499 76.85 292.644 76.85 292.644C76.85 292.644 83.539 285.952 92.624 275.261C74.906 255.573 36.135 208.193 36.135 170.497Z" fill="#FFBE35"/>
<path d="M76.851 211.213C94.8405 211.213 109.424 196.63 109.424 178.64C109.424 160.65 94.8405 146.067 76.851 146.067C58.8614 146.067 44.278 160.65 44.278 178.64C44.278 196.63 58.8614 211.213 76.851 211.213Z" fill="#FFE88F"/>
<path d="M455.173 116.755C462.319 102.111 467.213 86.924 467.213 72.779C467.213 32.649 434.564 0 394.433 0C368.452 0 345.621 13.695 332.741 34.235C318.576 30.0888 304.064 27.2391 289.383 25.721C285.196 25.286 281.439 28.339 281.007 32.534C280.904 33.5313 280.999 34.539 281.286 35.4997C281.573 36.4603 282.046 37.3551 282.679 38.1328C283.311 38.9105 284.091 39.556 284.973 40.0323C285.855 40.5087 286.823 40.8066 287.82 40.909C300.713 42.2379 313.469 44.6623 325.95 48.156C323.102 56.0528 321.649 64.3845 321.655 72.779C321.655 124.209 386.285 189.431 389.035 192.181C391.976 195.121 396.892 195.121 399.832 192.181C401.569 190.443 427.98 163.792 447.211 131.435C462.904 152.367 474.683 175.369 482.312 199.768L371.58 211.424C369.604 211.633 367.786 212.603 366.514 214.13C365.367 215.506 338.281 248.058 324.41 268.906C308.721 269.95 294.372 275.971 282.951 285.425L281.512 276.793L271.672 218.094C271.372 216.302 270.442 214.676 269.051 213.507L210.013 163.969C208.887 163.024 207.511 162.425 206.052 162.243L145.56 154.681C138.127 133.428 121.106 116.654 99.701 109.555C140.366 67.334 194.554 42.693 253.3 39.949C255.322 39.8547 257.224 38.9608 258.588 37.4641C259.951 35.9674 260.664 33.9904 260.57 31.968C260.374 27.757 256.8 24.482 252.589 24.698C219.417 26.246 187.519 34.355 157.78 48.796C128.955 62.794 103.492 82.064 82.096 106.07C80.3511 105.938 78.6019 105.867 76.852 105.86C36.722 105.86 4.073 138.509 4.073 178.639C4.073 196.77 12.109 216.612 22.631 234.831C21.1196 245.894 20.3605 257.048 20.359 268.214C20.359 333.332 45.718 394.551 91.762 440.596C137.806 486.641 199.025 512 264.143 512C329.261 512 390.48 486.641 436.525 440.597C482.57 394.552 507.928 333.333 507.928 268.215C507.928 212.571 489.685 160.218 455.173 116.755ZM394.433 175.692C379.184 159.147 336.922 109.94 336.922 72.779C336.922 41.068 362.721 15.268 394.433 15.268C426.145 15.268 451.944 41.068 451.944 72.779C451.944 109.941 409.682 159.148 394.433 175.692ZM329.288 283.992C360.999 283.992 386.799 309.791 386.799 341.503C386.799 378.664 344.537 427.871 329.288 444.416C314.039 427.871 271.777 378.664 271.777 341.503C271.777 309.792 297.577 283.992 329.288 283.992ZM201.923 177.114L257.08 223.395L266.453 279.31L269.835 299.606C261.454 311.462 256.509 325.911 256.509 341.503C256.509 351.651 259.032 362.336 263.093 372.972L241.599 434.008L168.665 475.803C158.031 470.891 147.79 465.168 138.034 458.685L187.358 420.849C188.573 419.916 189.48 418.639 189.961 417.184L212.355 349.324C212.898 347.678 212.865 345.897 212.262 344.273C211.658 342.648 210.52 341.278 209.034 340.386L161.905 312.108L129.073 238.235C140.562 219.108 149.632 197.906 149.632 178.64C149.632 175.894 149.465 173.187 149.168 170.519L201.923 177.114ZM76.851 121.129C108.562 121.129 134.362 146.929 134.362 178.64C134.362 215.801 92.101 265.008 76.851 281.553C61.601 265.008 19.34 215.801 19.34 178.64C19.34 146.929 45.139 121.129 76.851 121.129ZM35.626 268.215C35.626 263.992 35.747 259.759 35.978 255.535C52.716 279.149 70.056 296.646 71.453 298.042C74.392 300.982 79.311 300.982 82.249 298.042C83.685 296.606 101.985 278.141 119.15 253.505L148.931 320.514C149.568 321.949 150.633 323.153 151.98 323.96L195.943 350.338L176.2 410.167L125.057 449.398C70.716 407.583 35.626 341.924 35.626 268.215ZM264.143 496.732C236.911 496.732 210.781 491.935 186.541 483.156L251.653 445.844C253.241 444.934 254.45 443.483 255.058 441.756L272.309 392.77C291.632 428.367 322.023 459.037 323.89 460.905C326.831 463.845 331.747 463.845 334.687 460.905C336.83 458.762 376.527 418.702 393.965 376.786L456.377 391.646C415.676 454.815 344.714 496.732 264.143 496.732ZM464.562 377.901L399.006 362.293C400.946 355.241 402.068 348.253 402.068 341.505C402.068 305.813 376.234 276.061 342.288 269.912C354.01 253.526 370.625 233.149 376.277 226.285L486.422 214.691C490.55 232.001 492.66 249.918 492.66 268.216C492.66 307.938 482.464 345.322 464.562 377.901Z" fill="black"/>
<path d="M329.288 381.71C351.458 381.71 369.495 363.673 369.495 341.503C369.495 319.333 351.458 301.296 329.288 301.296C307.118 301.296 289.081 319.333 289.081 341.503C289.082 363.673 307.119 381.71 329.288 381.71ZM329.288 316.565C343.04 316.565 354.226 327.753 354.226 341.503C354.226 355.254 343.039 366.441 329.288 366.441C315.537 366.441 304.35 355.253 304.35 341.503C304.35 327.752 315.537 316.565 329.288 316.565ZM394.433 32.573C372.263 32.573 354.226 50.61 354.226 72.78C354.226 94.95 372.263 112.987 394.433 112.987C416.603 112.987 434.64 94.95 434.64 72.78C434.64 50.61 416.603 32.573 394.433 32.573ZM394.433 97.718C380.681 97.718 369.495 86.53 369.495 72.78C369.495 59.03 380.682 47.842 394.433 47.842C408.184 47.842 419.371 59.03 419.371 72.78C419.371 86.53 408.185 97.718 394.433 97.718ZM117.058 178.64C117.058 156.47 99.021 138.433 76.851 138.433C54.681 138.433 36.644 156.47 36.644 178.64C36.644 200.81 54.681 218.847 76.851 218.847C99.021 218.847 117.058 200.81 117.058 178.64ZM51.913 178.64C51.913 164.889 63.101 153.702 76.851 153.702C90.601 153.702 101.789 164.89 101.789 178.64C101.789 192.39 90.601 203.578 76.851 203.578C63.101 203.578 51.913 192.391 51.913 178.64Z" fill="black"/>
</svg>
