<svg width="512" height="512" viewBox="0 0 512 512" fill="none" xmlns="http://www.w3.org/2000/svg">
<path d="M185.901 220.796L159.278 332.611C158.596 335.475 158.659 338.465 159.461 341.297C160.263 344.13 161.776 346.71 163.858 348.791C171.99 356.923 185.653 354.962 191.169 344.871L245.399 245.67L185.901 220.796Z" fill="#C78FF5"/>
<path d="M245.398 245.67L344.599 191.44C354.69 185.924 356.651 172.261 348.519 164.129C346.437 162.048 343.858 160.534 341.025 159.732C338.193 158.931 335.203 158.867 332.339 159.549L220.524 186.172L245.398 245.67Z" fill="#D2A0F5"/>
<path d="M272.351 272.623L271.962 373.862C271.954 375.785 272.328 377.69 273.06 379.468C273.793 381.246 274.87 382.862 276.23 384.221C283.843 391.834 296.799 388.846 300.308 378.667L315.656 334.154L272.351 272.623Z" fill="#C78FF5"/>
<path d="M333.883 315.927L378.396 300.579C388.574 297.07 391.563 284.114 383.95 276.501C382.59 275.141 380.975 274.064 379.197 273.332C377.419 272.599 375.514 272.226 373.591 272.233L272.352 272.622L333.883 315.927Z" fill="#D2A0F5"/>
<path d="M173.469 141.92C169.296 141.345 165.09 141.036 160.878 140.995C149.717 140.895 140.624 149.988 140.724 161.149C140.966 188.044 152.481 216.391 174.699 238.61C208.392 272.303 272.929 312.297 317.007 337.772C330.306 345.458 345.187 330.578 337.5 317.279C332.128 307.982 326.662 298.74 321.102 289.554L173.469 141.92Z" fill="#E1F1FA"/>
<path d="M173.469 141.92C176.616 164.87 187.747 188.018 206.519 206.79C233.646 233.917 280.763 265.124 321.103 289.554C296.673 249.214 265.466 202.097 238.339 174.97C219.566 156.198 196.419 145.068 173.469 141.92Z" fill="#F5FAFC"/>
<path d="M389.093 15.162C376.135 10.0883 362.34 7.48943 348.424 7.50003C310.522 7.50003 276.888 26.486 255.84 55.807C253.393 59.215 252.076 63.3049 252.076 67.5005C252.076 71.6962 253.393 75.786 255.84 79.194C276.888 108.514 310.522 127.501 348.424 127.501C362.739 127.501 376.444 124.789 389.093 119.839V15.162Z" fill="#B4D241"/>
<path d="M441.008 79.193C443.455 75.7848 444.771 71.695 444.771 67.4995C444.771 63.304 443.455 59.2142 441.008 55.806C427.909 37.559 409.935 23.319 389.092 15.162C370.795 25.439 358.424 45.02 358.424 67.5C358.424 89.98 370.795 109.561 389.093 119.838C409.935 111.681 427.91 97.44 441.008 79.193Z" fill="#C3DC4B"/>
<path d="M372.289 124.933C364.449 126.643 356.448 127.504 348.424 127.5C310.522 127.5 276.888 108.514 255.84 79.193C253.393 75.7852 252.077 71.6954 252.077 67.5C252.077 63.3046 253.393 59.2148 255.84 55.807C276.887 26.486 310.522 7.5 348.424 7.5C386.326 7.5 419.96 26.486 441.009 55.807C443.456 59.2148 444.772 63.3046 444.772 67.5C444.772 71.6954 443.456 75.7852 441.009 79.193C431.328 92.678 418.985 103.978 404.789 112.249" stroke="black" stroke-width="15" stroke-miterlimit="10" stroke-linecap="round" stroke-linejoin="round"/>
<path d="M395.729 67.5H255.729C151.623 67.5 67.229 151.894 67.229 256M325.729 67.5L355.729 97.5" stroke="black" stroke-width="15" stroke-miterlimit="10" stroke-linecap="round" stroke-linejoin="round"/>
<path d="M122.909 496.838C135.867 501.912 149.661 504.511 163.578 504.5C201.48 504.5 235.114 485.514 256.162 456.193C258.609 452.785 259.925 448.695 259.925 444.499C259.925 440.304 258.609 436.214 256.162 432.806C235.114 403.486 201.48 384.499 163.578 384.499C149.263 384.499 135.558 387.211 122.909 392.161V496.838Z" fill="#B4D241"/>
<path d="M70.9934 432.807C68.5466 436.215 67.2306 440.305 67.2306 444.501C67.2306 448.696 68.5466 452.786 70.9934 456.194C84.0924 474.441 102.066 488.681 122.909 496.838C141.206 486.561 153.577 466.98 153.577 444.5C153.577 422.02 141.206 402.439 122.908 392.162C102.066 400.319 84.0914 414.56 70.9934 432.807Z" fill="#C3DC4B"/>
<path d="M139.712 387.067C147.552 385.357 155.553 384.496 163.577 384.5C201.479 384.5 235.113 403.486 256.161 432.807C258.609 436.215 259.925 440.305 259.925 444.5C259.925 448.695 258.609 452.785 256.161 456.193C235.114 485.514 201.479 504.5 163.577 504.5C125.675 504.5 92.0414 485.514 70.9924 456.193C68.5453 452.785 67.229 448.695 67.229 444.5C67.229 440.305 68.5453 436.215 70.9924 432.807C80.6734 419.322 93.0164 408.022 107.212 399.751" stroke="black" stroke-width="15" stroke-miterlimit="10" stroke-linecap="round" stroke-linejoin="round"/>
<path d="M116.272 444.5H256.272C360.378 444.5 444.772 360.106 444.772 256M186.272 444.5L156.272 414.5" stroke="black" stroke-width="15" stroke-miterlimit="10" stroke-linecap="round" stroke-linejoin="round"/>
<path d="M244.754 180.403L332.34 159.549C335.204 158.867 338.194 158.93 341.026 159.732C343.859 160.534 346.439 162.047 348.52 164.129C356.652 172.261 354.691 185.924 344.6 191.44L281.396 225.992M225.835 281.455L191.168 344.87C185.652 354.961 171.989 356.922 163.857 348.79C161.776 346.708 160.262 344.129 159.46 341.296C158.659 338.464 158.595 335.474 159.277 332.61L179.977 245.668M311.844 272.471L373.59 272.234C375.513 272.226 377.418 272.6 379.196 273.332C380.974 274.065 382.59 275.142 383.949 276.502C391.562 284.115 388.574 297.071 378.395 300.58L337.139 314.805M314.527 337.427L300.308 378.667C296.799 388.845 283.843 391.834 276.23 384.221C274.87 382.861 273.793 381.246 273.061 379.468C272.328 377.69 271.955 375.785 271.962 373.862L272.201 311.796" stroke="black" stroke-width="15" stroke-miterlimit="10" stroke-linecap="round" stroke-linejoin="round"/>
<path d="M140.724 161.149C140.624 149.988 149.717 140.895 160.878 140.995C187.772 141.237 216.12 152.752 238.339 174.97C272.032 208.663 312.026 273.2 337.501 317.278C345.187 330.577 330.307 345.458 317.008 337.772C272.93 312.297 208.392 272.303 174.7 238.61C152.48 216.391 140.966 188.044 140.724 161.149Z" stroke="black" stroke-width="15" stroke-miterlimit="10" stroke-linecap="round" stroke-linejoin="round"/>
<path d="M178.71 202.266C178.293 196.187 180.401 189.967 185.048 185.32C189.695 180.673 195.915 178.564 201.994 178.982" stroke="black" stroke-width="15" stroke-miterlimit="10" stroke-linecap="round" stroke-linejoin="round"/>
</svg>
